<svg xmlns="http://www.w3.org/2000/svg" xmlns:xlink="http://www.w3.org/1999/xlink" width="500" zoomAndPan="magnify" viewBox="0 0 375 374.999991" height="500" preserveAspectRatio="xMidYMid meet" version="1.0"><defs><clipPath id="id1"><path d="M 125 65.582031 L 141 65.582031 L 141 81 L 125 81 Z M 125 65.582031 " clip-rule="nonzero"/></clipPath><clipPath id="id2"><path d="M 82.472656 79 L 299.222656 79 L 299.222656 296.582031 L 82.472656 296.582031 Z M 82.472656 79 " clip-rule="nonzero"/></clipPath><clipPath id="id3"><path d="M 17 86 L 42 86 L 42 111 L 17 111 Z M 17 86 " clip-rule="nonzero"/></clipPath><clipPath id="id4"><path d="M 10.804688 93.285156 L 34.929688 79.570312 L 48.644531 103.695312 L 24.519531 117.410156 Z M 10.804688 93.285156 " clip-rule="nonzero"/></clipPath><clipPath id="id5"><path d="M 10.804688 93.285156 L 34.929688 79.570312 L 48.644531 103.695312 L 24.519531 117.410156 Z M 10.804688 93.285156 " clip-rule="nonzero"/></clipPath><clipPath id="id6"><path d="M 333 86 L 358 86 L 358 111 L 333 111 Z M 333 86 " clip-rule="nonzero"/></clipPath><clipPath id="id7"><path d="M 340.140625 79.429688 L 364.070312 93.480469 L 350.023438 117.410156 L 326.09375 103.363281 Z M 340.140625 79.429688 " clip-rule="nonzero"/></clipPath><clipPath id="id8"><path d="M 350.074219 117.601562 L 326.140625 103.554688 L 340.191406 79.625 L 364.121094 93.671875 Z M 350.074219 117.601562 " clip-rule="nonzero"/></clipPath><clipPath id="id9"><path d="M 95 216 L 287 216 L 287 320 L 95 320 Z M 95 216 " clip-rule="nonzero"/></clipPath><clipPath id="id10"><path d="M 94.417969 315.910156 L 97.21875 212.449219 L 287.648438 217.601562 L 284.847656 321.0625 Z M 94.417969 315.910156 " clip-rule="nonzero"/></clipPath><clipPath id="id11"><path d="M 94.417969 315.910156 L 97.21875 212.449219 L 287.648438 217.601562 L 284.847656 321.0625 Z M 94.417969 315.910156 " clip-rule="nonzero"/></clipPath><clipPath id="id12"><path d="M 94.417969 315.910156 L 97.21875 212.449219 L 287.648438 217.601562 L 284.847656 321.0625 Z M 94.417969 315.910156 " clip-rule="nonzero"/></clipPath></defs><path fill="rgb(36.468506%, 27.839661%, 50.979614%)" d="M 190.859375 256.003906 C 111.953125 256.003906 47.984375 274.304688 47.984375 296.878906 C 47.984375 319.453125 111.953125 337.753906 190.859375 337.753906 C 269.765625 337.753906 333.734375 319.453125 333.734375 296.878906 C 333.734375 274.304688 269.765625 256.003906 190.859375 256.003906 " fill-opacity="1" fill-rule="nonzero"/><path fill="rgb(98.429871%, 81.568909%, 23.139954%)" d="M 226.308594 85.871094 L 231.851562 81.726562 L 232.351562 88.632812 L 236.484375 94.179688 L 229.578125 94.675781 L 224.03125 98.808594 L 223.542969 91.902344 L 219.402344 86.359375 L 226.308594 85.871094 " fill-opacity="1" fill-rule="nonzero"/><path fill="rgb(98.429871%, 81.568909%, 23.139954%)" d="M 230.59375 100.394531 L 232.714844 98.808594 L 232.910156 101.460938 L 234.492188 103.582031 L 231.84375 103.777344 L 229.71875 105.359375 L 229.527344 102.710938 L 227.941406 100.585938 L 230.59375 100.394531 " fill-opacity="1" fill-rule="nonzero"/><path fill="rgb(98.429871%, 81.568909%, 23.139954%)" d="M 118.105469 78.957031 L 124.421875 76.113281 L 123.40625 82.957031 L 126.25 89.261719 L 119.40625 88.257812 L 113.097656 91.101562 L 114.101562 84.257812 L 111.257812 77.941406 L 118.105469 78.957031 " fill-opacity="1" fill-rule="nonzero"/><path fill="rgb(98.429871%, 81.568909%, 23.139954%)" d="M 118.105469 68.371094 L 120.53125 67.285156 L 120.136719 69.917969 L 121.234375 72.332031 L 118.601562 71.949219 L 116.183594 73.035156 L 116.570312 70.402344 L 115.484375 67.988281 L 118.105469 68.371094 " fill-opacity="1" fill-rule="nonzero"/><g clip-path="url(#id1)"><path fill="rgb(98.429871%, 81.568909%, 23.139954%)" d="M 132.46875 68.777344 L 138.785156 65.929688 L 137.769531 72.769531 L 140.613281 79.085938 L 133.765625 78.082031 L 127.460938 80.914062 L 128.464844 74.070312 L 125.621094 67.761719 L 132.46875 68.777344 " fill-opacity="1" fill-rule="nonzero"/></g><g clip-path="url(#id2)"><path fill="rgb(29.40979%, 8.239746%, 2.349854%)" d="M 292.550781 172.042969 C 277.863281 172.042969 265.605469 159.785156 265.605469 145.089844 C 265.605469 143.730469 265.707031 142.378906 265.917969 141.058594 C 251.921875 140.824219 240.242188 129.511719 239.449219 115.648438 C 237.9375 115.921875 236.382812 116.074219 234.796875 116.074219 C 220.101562 116.074219 207.84375 103.816406 207.84375 89.132812 C 207.84375 86.328125 208.289062 83.605469 209.121094 81.058594 C 203.179688 80.042969 197.074219 79.503906 190.847656 79.503906 C 155.625 79.503906 124.3125 96.3125 104.515625 122.351562 C 99.191406 129.339844 94.703125 137.015625 91.210938 145.203125 C 85.582031 158.292969 82.472656 172.722656 82.472656 187.875 C 82.472656 221.765625 98.042969 252.039062 122.433594 271.90625 C 134.195312 281.511719 148.027344 288.683594 163.152344 292.664062 C 171.988281 295 181.269531 296.230469 190.847656 296.230469 C 250.703125 296.230469 299.222656 247.714844 299.222656 187.875 C 299.222656 182.300781 298.789062 176.828125 297.976562 171.476562 C 296.21875 171.851562 294.410156 172.042969 292.550781 172.042969 " fill-opacity="1" fill-rule="nonzero"/></g><path fill="rgb(80.389404%, 69.799805%, 48.629761%)" d="M 186.5625 124.847656 C 186.5625 139.980469 174.292969 152.238281 159.167969 152.238281 C 144.046875 152.238281 131.777344 139.980469 131.777344 124.847656 C 131.777344 109.726562 144.046875 97.46875 159.167969 97.46875 C 174.292969 97.46875 186.5625 109.726562 186.5625 124.847656 " fill-opacity="1" fill-rule="nonzero"/><path fill="rgb(80.389404%, 69.799805%, 48.629761%)" d="M 292.550781 172.042969 C 277.863281 172.042969 265.605469 159.785156 265.605469 145.089844 C 265.605469 143.730469 265.707031 142.386719 265.917969 141.066406 C 261.726562 140.996094 257.742188 139.941406 254.207031 138.113281 C 251.710938 142.234375 250.277344 147.070312 250.277344 152.238281 C 250.277344 167.363281 262.546875 179.628906 277.671875 179.628906 C 285.199219 179.628906 292.011719 176.59375 296.960938 171.667969 C 295.527344 171.910156 294.054688 172.042969 292.550781 172.042969 " fill-opacity="1" fill-rule="nonzero"/><path fill="rgb(80.389404%, 69.799805%, 48.629761%)" d="M 149.640625 197.492188 C 149.640625 212.617188 137.382812 224.882812 122.25 224.882812 C 107.125 224.882812 94.855469 212.617188 94.855469 197.492188 C 94.855469 182.363281 107.125 170.105469 122.25 170.105469 C 137.382812 170.105469 149.640625 182.363281 149.640625 197.492188 " fill-opacity="1" fill-rule="nonzero"/><path fill="rgb(80.389404%, 69.799805%, 48.629761%)" d="M 177.035156 268.847656 C 177.035156 279.066406 171.4375 287.972656 163.152344 292.664062 C 148.027344 288.683594 134.195312 281.511719 122.433594 271.90625 C 122.308594 270.898438 122.25 269.882812 122.25 268.847656 C 122.25 253.714844 134.519531 241.457031 149.640625 241.457031 C 164.765625 241.457031 177.035156 253.714844 177.035156 268.847656 " fill-opacity="1" fill-rule="nonzero"/><path fill="rgb(80.389404%, 69.799805%, 48.629761%)" d="M 262.191406 235.597656 C 262.191406 247.105469 252.859375 256.4375 241.351562 256.4375 C 229.832031 256.4375 220.507812 247.105469 220.507812 235.597656 C 220.507812 224.09375 229.832031 214.757812 241.351562 214.757812 C 252.859375 214.757812 262.191406 224.09375 262.191406 235.597656 " fill-opacity="1" fill-rule="nonzero"/><path fill="rgb(80.389404%, 69.799805%, 48.629761%)" d="M 232.535156 165.046875 C 232.535156 176.550781 223.199219 185.886719 211.691406 185.886719 C 200.183594 185.886719 190.847656 176.550781 190.847656 165.046875 C 190.847656 153.539062 200.183594 144.207031 211.691406 144.207031 C 223.199219 144.207031 232.535156 153.539062 232.535156 165.046875 " fill-opacity="1" fill-rule="nonzero"/><path fill="rgb(80.389404%, 69.799805%, 48.629761%)" d="M 200.253906 218.332031 C 200.253906 225.898438 194.121094 232.023438 186.5625 232.023438 C 178.996094 232.023438 172.859375 225.898438 172.859375 218.332031 C 172.859375 210.765625 178.996094 204.632812 186.5625 204.632812 C 194.121094 204.632812 200.253906 210.765625 200.253906 218.332031 " fill-opacity="1" fill-rule="nonzero"/><path fill="rgb(80.389404%, 69.799805%, 48.629761%)" d="M 207.851562 89.3125 C 206.15625 91.589844 205.140625 94.402344 205.140625 97.46875 C 205.140625 105.023438 211.273438 111.160156 218.84375 111.160156 C 219.023438 111.160156 219.207031 111.140625 219.402344 111.128906 C 212.503906 106.253906 207.914062 98.242188 207.851562 89.3125 " fill-opacity="1" fill-rule="nonzero"/><path fill="rgb(80.389404%, 69.799805%, 48.629761%)" d="M 114.632812 135.574219 C 114.632812 143.128906 108.496094 149.265625 100.929688 149.265625 C 97.128906 149.265625 93.675781 147.71875 91.210938 145.203125 C 94.703125 137.015625 99.191406 129.339844 104.515625 122.351562 C 110.34375 123.925781 114.632812 129.246094 114.632812 135.574219 " fill-opacity="1" fill-rule="nonzero"/><g clip-path="url(#id3)"><g clip-path="url(#id4)"><g clip-path="url(#id5)"><path fill="rgb(100%, 100%, 100%)" d="M 41.785156 91.632812 C 33.6875 98.441406 33.105469 100.558594 36.582031 110.550781 C 29.773438 102.453125 27.65625 101.871094 17.664062 105.347656 C 25.761719 98.539062 26.34375 96.421875 22.867188 86.429688 C 29.675781 94.527344 31.792969 95.109375 41.785156 91.632812 Z M 41.785156 91.632812 " fill-opacity="1" fill-rule="nonzero"/></g></g></g><g clip-path="url(#id6)"><g clip-path="url(#id7)"><g clip-path="url(#id8)"><path fill="rgb(100%, 100%, 100%)" d="M 333.167969 91.589844 C 343.113281 95.207031 345.238281 94.652344 352.15625 86.652344 C 348.539062 96.59375 349.09375 98.71875 357.097656 105.640625 C 347.152344 102.023438 345.027344 102.574219 338.109375 110.578125 C 341.726562 100.636719 341.171875 98.511719 333.167969 91.589844 Z M 333.167969 91.589844 " fill-opacity="1" fill-rule="nonzero"/></g></g></g><g clip-path="url(#id9)"><g clip-path="url(#id10)"><g clip-path="url(#id11)"><g clip-path="url(#id12)"><path fill="rgb(80.389404%, 69.799805%, 48.629761%)" d="M 232.816406 216.300781 C 232.792969 216.285156 232.769531 216.265625 232.746094 216.253906 C 232.730469 216.242188 232.71875 216.234375 232.703125 216.226562 C 232.691406 216.21875 232.675781 216.210938 232.660156 216.203125 C 232.644531 216.195312 232.632812 216.191406 232.617188 216.183594 C 232.601562 216.179688 232.589844 216.171875 232.574219 216.167969 C 232.558594 216.164062 232.542969 216.15625 232.527344 216.152344 C 232.515625 216.148438 232.5 216.144531 232.484375 216.140625 C 232.46875 216.136719 232.453125 216.132812 232.433594 216.132812 C 232.421875 216.128906 232.40625 216.128906 232.394531 216.125 C 232.375 216.125 232.355469 216.121094 232.339844 216.121094 C 232.328125 216.121094 232.3125 216.121094 232.300781 216.121094 C 232.292969 216.121094 232.28125 216.121094 232.273438 216.121094 L 138.414062 219.945312 C 138.390625 219.949219 138.367188 219.953125 138.34375 219.957031 C 138.160156 219.921875 137.964844 219.949219 137.785156 220.050781 C 137.480469 220 137.15625 220.125 136.925781 220.429688 L 95.878906 273.925781 C 95.875 273.929688 95.875 273.933594 95.875 273.933594 C 95.851562 273.964844 95.832031 273.992188 95.8125 274.023438 C 95.804688 274.035156 95.796875 274.046875 95.792969 274.058594 C 95.78125 274.078125 95.769531 274.097656 95.757812 274.117188 C 95.75 274.132812 95.742188 274.148438 95.734375 274.167969 C 95.726562 274.183594 95.71875 274.203125 95.710938 274.222656 C 95.703125 274.238281 95.695312 274.253906 95.691406 274.273438 C 95.675781 274.304688 95.667969 274.339844 95.65625 274.371094 C 95.652344 274.386719 95.648438 274.398438 95.644531 274.414062 C 95.636719 274.4375 95.632812 274.464844 95.625 274.492188 C 95.625 274.503906 95.621094 274.519531 95.617188 274.53125 C 95.613281 274.5625 95.605469 274.59375 95.601562 274.625 C 95.601562 274.632812 95.601562 274.640625 95.597656 274.648438 C 95.59375 274.691406 95.59375 274.734375 95.589844 274.777344 C 95.589844 274.777344 95.589844 274.777344 95.589844 274.78125 C 95.589844 274.820312 95.589844 274.859375 95.589844 274.898438 C 95.589844 274.902344 95.589844 274.90625 95.589844 274.914062 C 95.589844 274.917969 95.59375 274.925781 95.59375 274.933594 C 95.59375 274.945312 95.59375 274.960938 95.59375 274.972656 C 95.597656 274.992188 95.601562 275.007812 95.601562 275.027344 C 95.605469 275.039062 95.605469 275.046875 95.605469 275.058594 C 95.617188 275.140625 95.636719 275.21875 95.660156 275.292969 C 95.664062 275.304688 95.667969 275.3125 95.667969 275.320312 C 95.679688 275.351562 95.691406 275.378906 95.703125 275.40625 C 95.707031 275.417969 95.707031 275.425781 95.714844 275.433594 C 95.726562 275.46875 95.742188 275.503906 95.761719 275.535156 C 95.761719 275.535156 95.761719 275.539062 95.761719 275.539062 C 95.78125 275.570312 95.800781 275.605469 95.820312 275.636719 C 95.828125 275.644531 95.832031 275.652344 95.835938 275.660156 C 95.855469 275.683594 95.871094 275.703125 95.886719 275.726562 C 95.894531 275.734375 95.902344 275.742188 95.90625 275.75 C 95.929688 275.777344 95.957031 275.804688 95.980469 275.828125 L 138.773438 316.820312 C 138.9375 316.980469 139.136719 317.066406 139.347656 317.074219 L 228.023438 319.523438 C 228.222656 319.53125 228.417969 319.460938 228.589844 319.324219 L 285.625 273.226562 C 285.628906 273.222656 285.632812 273.21875 285.636719 273.21875 C 285.664062 273.195312 285.691406 273.167969 285.71875 273.140625 C 285.726562 273.136719 285.730469 273.128906 285.738281 273.121094 C 285.757812 273.097656 285.777344 273.074219 285.796875 273.050781 C 285.804688 273.042969 285.8125 273.03125 285.820312 273.023438 C 285.839844 272.996094 285.863281 272.964844 285.882812 272.933594 C 285.890625 272.921875 285.894531 272.910156 285.902344 272.898438 C 285.917969 272.871094 285.929688 272.847656 285.941406 272.820312 C 285.949219 272.808594 285.957031 272.796875 285.960938 272.785156 C 285.976562 272.75 285.992188 272.714844 286.003906 272.679688 C 286.007812 272.664062 286.015625 272.652344 286.019531 272.636719 C 286.027344 272.609375 286.035156 272.578125 286.042969 272.550781 C 286.046875 272.539062 286.050781 272.523438 286.054688 272.511719 C 286.0625 272.472656 286.070312 272.433594 286.078125 272.394531 C 286.082031 272.378906 286.082031 272.367188 286.082031 272.351562 C 286.085938 272.339844 286.085938 272.328125 286.089844 272.316406 C 286.089844 272.296875 286.089844 272.277344 286.09375 272.257812 C 286.09375 272.246094 286.09375 272.234375 286.097656 272.222656 C 286.097656 272.210938 286.097656 272.195312 286.097656 272.183594 C 286.097656 272.183594 286.097656 272.179688 286.097656 272.179688 C 286.101562 272.136719 286.097656 272.09375 286.097656 272.050781 C 286.097656 272.042969 286.09375 272.03125 286.09375 272.023438 C 286.089844 271.980469 286.085938 271.941406 286.082031 271.898438 C 286.078125 271.890625 286.078125 271.886719 286.078125 271.878906 C 286.070312 271.839844 286.0625 271.804688 286.054688 271.765625 C 286.054688 271.761719 286.050781 271.753906 286.050781 271.746094 C 286.039062 271.707031 286.027344 271.671875 286.015625 271.632812 C 286.011719 271.625 286.007812 271.613281 286.007812 271.605469 C 285.992188 271.566406 285.976562 271.53125 285.960938 271.496094 C 285.957031 271.492188 285.957031 271.488281 285.953125 271.484375 C 285.9375 271.449219 285.921875 271.417969 285.902344 271.386719 C 285.898438 271.378906 285.894531 271.375 285.890625 271.367188 C 285.871094 271.332031 285.851562 271.300781 285.828125 271.273438 C 285.824219 271.265625 285.816406 271.261719 285.8125 271.253906 C 285.789062 271.222656 285.765625 271.195312 285.738281 271.167969 C 285.738281 271.167969 285.738281 271.164062 285.738281 271.164062 L 285.734375 271.164062 L 232.929688 216.402344 C 232.917969 216.390625 232.902344 216.375 232.890625 216.363281 C 232.878906 216.355469 232.871094 216.347656 232.863281 216.339844 C 232.847656 216.324219 232.832031 216.3125 232.816406 216.300781 Z M 227.785156 316.972656 L 140.621094 314.5625 L 148.265625 286.425781 L 233.4375 287.164062 L 227.992188 316.457031 C 227.96875 316.582031 227.957031 316.707031 227.964844 316.828125 Z M 233.71875 284.621094 L 148.519531 283.882812 L 149.519531 246.863281 L 234.402344 242.070312 Z M 236.398438 242.621094 L 282.089844 271.671875 L 235.726562 284.253906 Z M 146.523438 283.566406 L 100.117188 274.226562 L 147.488281 247.800781 Z M 147.085938 245.257812 L 100.878906 271.035156 L 137.769531 222.953125 Z M 146.242188 286.09375 L 138.765625 313.605469 L 100.417969 276.871094 Z M 235.539062 286.902344 L 279.882812 274.867188 L 230.332031 314.914062 Z M 236.414062 239.765625 L 233.75 220.558594 L 277.40625 265.832031 Z M 231.453125 218.699219 L 234.339844 239.527344 L 148.988281 244.347656 L 139.835938 222.4375 Z M 231.453125 218.699219 " fill-opacity="1" fill-rule="nonzero"/></g></g></g></g></svg>