{
    "asset" : {
        "generator" : "Khronos glTF Blender I/O v1.7.33",
        "version" : "2.0"
    },
    "scene" : 0,
    "scenes" : [
        {
            "name" : "Scene",
            "nodes" : [
                0
            ]
        }
    ],
    "nodes" : [
        {
            "mesh" : 0,
            "name" : "Casing low_poly",
            "scale" : [
                0.8858515024185181,
                0.649468183517456,
                0.8858515024185181
            ],
            "translation" : [
                -0.2670394778251648,
                -0.10022018849849701,
                -0.05986814200878143
            ]
        }
    ],
    "materials" : [
        {
            "doubleSided" : true,
            "name" : "Material.001",
            "pbrMetallicRoughness" : {
                "metallicFactor" : 0,
                "roughnessFactor" : 0.2590909004211426
            }
        },
        {
            "doubleSided" : true,
            "name" : "Material.002",
            "pbrMetallicRoughness" : {
                "baseColorFactor" : [
                    0.15150325000286102,
                    0.15150325000286102,
                    0.15150325000286102,
                    1
                ],
                "roughnessFactor" : 0.5
            }
        },
        {
            "doubleSided" : true,
            "name" : "Material.003",
            "pbrMetallicRoughness" : {
                "baseColorFactor" : [
                    1,
                    0.374103844165802,
                    0,
                    1
                ],
                "metallicFactor" : 0,
                "roughnessFactor" : 0.20454543828964233
            }
        },
        {
            "doubleSided" : true,
            "emissiveFactor" : [
                1,
                1,
                0
            ],
            "name" : "Material",
            "pbrMetallicRoughness" : {
                "baseColorFactor" : [
                    1.0000001192092896,
                    0.3967553675174713,
                    0,
                    1
                ],
                "metallicFactor" : 0,
                "roughnessFactor" : 0.5
            }
        }
    ],
    "meshes" : [
        {
            "name" : "Cube.003",
            "primitives" : [
                {
                    "attributes" : {
                        "POSITION" : 0,
                        "NORMAL" : 1,
                        "TEXCOORD_0" : 2
                    },
                    "indices" : 3,
                    "material" : 0
                },
                {
                    "attributes" : {
                        "POSITION" : 4,
                        "NORMAL" : 5,
                        "TEXCOORD_0" : 6
                    },
                    "indices" : 7,
                    "material" : 1
                },
                {
                    "attributes" : {
                        "POSITION" : 8,
                        "NORMAL" : 9,
                        "TEXCOORD_0" : 10
                    },
                    "indices" : 11,
                    "material" : 2
                },
                {
                    "attributes" : {
                        "POSITION" : 12,
                        "NORMAL" : 13,
                        "TEXCOORD_0" : 14
                    },
                    "indices" : 15,
                    "material" : 3
                }
            ]
        }
    ],
    "accessors" : [
        {
            "bufferView" : 0,
            "componentType" : 5126,
            "count" : 3160,
            "max" : [
                0.7172563672065735,
                0.5066850781440735,
                0.5
            ],
            "min" : [
                -0.5,
                -0.5,
                -0.5
            ],
            "type" : "VEC3"
        },
        {
            "bufferView" : 1,
            "componentType" : 5126,
            "count" : 3160,
            "type" : "VEC3"
        },
        {
            "bufferView" : 2,
            "componentType" : 5126,
            "count" : 3160,
            "type" : "VEC2"
        },
        {
            "bufferView" : 3,
            "componentType" : 5123,
            "count" : 5592,
            "type" : "SCALAR"
        },
        {
            "bufferView" : 4,
            "componentType" : 5126,
            "count" : 5183,
            "max" : [
                1.325217366218567,
                0.755497395992279,
                0.7577211856842041
            ],
            "min" : [
                -0.7577211856842041,
                -0.9334975481033325,
                -0.7577211856842041
            ],
            "type" : "VEC3"
        },
        {
            "bufferView" : 5,
            "componentType" : 5126,
            "count" : 5183,
            "type" : "VEC3"
        },
        {
            "bufferView" : 6,
            "componentType" : 5126,
            "count" : 5183,
            "type" : "VEC2"
        },
        {
            "bufferView" : 7,
            "componentType" : 5123,
            "count" : 12480,
            "type" : "SCALAR"
        },
        {
            "bufferView" : 8,
            "componentType" : 5126,
            "count" : 386,
            "max" : [
                1.239819884300232,
                0.5431157350540161,
                0.534707248210907
            ],
            "min" : [
                -0.534707248210907,
                -0.42671647667884827,
                -0.534707248210907
            ],
            "type" : "VEC3"
        },
        {
            "bufferView" : 9,
            "componentType" : 5126,
            "count" : 386,
            "type" : "VEC3"
        },
        {
            "bufferView" : 10,
            "componentType" : 5126,
            "count" : 386,
            "type" : "VEC2"
        },
        {
            "bufferView" : 11,
            "componentType" : 5123,
            "count" : 792,
            "type" : "SCALAR"
        },
        {
            "bufferView" : 12,
            "componentType" : 5126,
            "count" : 424,
            "max" : [
                0.7544647455215454,
                0.5,
                0.7529304623603821
            ],
            "min" : [
                -0.7529304623603821,
                -0.8937746286392212,
                -0.7529304623603821
            ],
            "type" : "VEC3"
        },
        {
            "bufferView" : 13,
            "componentType" : 5126,
            "count" : 424,
            "type" : "VEC3"
        },
        {
            "bufferView" : 14,
            "componentType" : 5126,
            "count" : 424,
            "type" : "VEC2"
        },
        {
            "bufferView" : 15,
            "componentType" : 5123,
            "count" : 858,
            "type" : "SCALAR"
        }
    ],
    "bufferViews" : [
        {
            "buffer" : 0,
            "byteLength" : 37920,
            "byteOffset" : 0
        },
        {
            "buffer" : 0,
            "byteLength" : 37920,
            "byteOffset" : 37920
        },
        {
            "buffer" : 0,
            "byteLength" : 25280,
            "byteOffset" : 75840
        },
        {
            "buffer" : 0,
            "byteLength" : 11184,
            "byteOffset" : 101120
        },
        {
            "buffer" : 0,
            "byteLength" : 62196,
            "byteOffset" : 112304
        },
        {
            "buffer" : 0,
            "byteLength" : 62196,
            "byteOffset" : 174500
        },
        {
            "buffer" : 0,
            "byteLength" : 41464,
            "byteOffset" : 236696
        },
        {
            "buffer" : 0,
            "byteLength" : 24960,
            "byteOffset" : 278160
        },
        {
            "buffer" : 0,
            "byteLength" : 4632,
            "byteOffset" : 303120
        },
        {
            "buffer" : 0,
            "byteLength" : 4632,
            "byteOffset" : 307752
        },
        {
            "buffer" : 0,
            "byteLength" : 3088,
            "byteOffset" : 312384
        },
        {
            "buffer" : 0,
            "byteLength" : 1584,
            "byteOffset" : 315472
        },
        {
            "buffer" : 0,
            "byteLength" : 5088,
            "byteOffset" : 317056
        },
        {
            "buffer" : 0,
            "byteLength" : 5088,
            "byteOffset" : 322144
        },
        {
            "buffer" : 0,
            "byteLength" : 3392,
            "byteOffset" : 327232
        },
        {
            "buffer" : 0,
            "byteLength" : 1716,
            "byteOffset" : 330624
        }
    ],
    "buffers" : [
        {
            "byteLength" : 332340,
            "uri" : "data:application/octet-stream;base64,"
        }
    ]
}
