{
    "asset" : {
        "generator" : "Khronos glTF Blender I/O v1.7.33",
        "version" : "2.0"
    },
    "scene" : 0,
    "scenes" : [
        {
            "name" : "Scene",
            "nodes" : [
                0
            ]
        }
    ],
    "nodes" : [
        {
            "mesh" : 0,
            "name" : "Trumpet low_poly",
            "scale" : [
                0.28625527024269104,
                0.4071504473686218,
                0.4071504473686218
            ],
            "translation" : [
                -0.5881883502006531,
                -0.7064972519874573,
                -0.06053550913929939
            ]
        }
    ],
    "materials" : [
        {
            "doubleSided" : true,
            "name" : "Material.001",
            "pbrMetallicRoughness" : {
                "metallicFactor" : 0,
                "roughnessFactor" : 0.2590909004211426
            }
        },
        {
            "doubleSided" : true,
            "name" : "Material.003",
            "pbrMetallicRoughness" : {
                "baseColorFactor" : [
                    1,
                    0.374103844165802,
                    0,
                    1
                ],
                "metallicFactor" : 0,
                "roughnessFactor" : 0.20454543828964233
            }
        },
        {
            "doubleSided" : true,
            "name" : "Material.002",
            "pbrMetallicRoughness" : {
                "baseColorFactor" : [
                    0.15150325000286102,
                    0.15150325000286102,
                    0.15150325000286102,
                    1
                ],
                "roughnessFactor" : 0.5
            }
        },
        {
            "doubleSided" : true,
            "emissiveFactor" : [
                1,
                1,
                0
            ],
            "name" : "Material",
            "pbrMetallicRoughness" : {
                "baseColorFactor" : [
                    1.0000001192092896,
                    0.3967553675174713,
                    0,
                    1
                ],
                "metallicFactor" : 0,
                "roughnessFactor" : 0.5
            }
        }
    ],
    "meshes" : [
        {
            "name" : "NurbsPath.004",
            "primitives" : [
                {
                    "attributes" : {
                        "POSITION" : 0,
                        "NORMAL" : 1,
                        "TEXCOORD_0" : 2
                    },
                    "indices" : 3,
                    "material" : 0
                },
                {
                    "attributes" : {
                        "POSITION" : 4,
                        "NORMAL" : 5,
                        "TEXCOORD_0" : 6
                    },
                    "indices" : 7,
                    "material" : 1
                },
                {
                    "attributes" : {
                        "POSITION" : 8,
                        "NORMAL" : 9,
                        "TEXCOORD_0" : 10
                    },
                    "indices" : 11,
                    "material" : 2
                },
                {
                    "attributes" : {
                        "POSITION" : 12,
                        "NORMAL" : 13,
                        "TEXCOORD_0" : 14
                    },
                    "indices" : 15,
                    "material" : 3
                }
            ]
        }
    ],
    "accessors" : [
        {
            "bufferView" : 0,
            "componentType" : 5126,
            "count" : 2380,
            "max" : [
                3.7238473892211914,
                2.7553529739379883,
                1.5346271991729736
            ],
            "min" : [
                -2.144826650619507,
                2.384185791015625e-07,
                -1.5347294807434082
            ],
            "type" : "VEC3"
        },
        {
            "bufferView" : 1,
            "componentType" : 5126,
            "count" : 2380,
            "type" : "VEC3"
        },
        {
            "bufferView" : 2,
            "componentType" : 5126,
            "count" : 2380,
            "type" : "VEC2"
        },
        {
            "bufferView" : 3,
            "componentType" : 5123,
            "count" : 5037,
            "type" : "SCALAR"
        },
        {
            "bufferView" : 4,
            "componentType" : 5126,
            "count" : 129,
            "max" : [
                1.237924337387085,
                2.6176598072052,
                0.45918554067611694
            ],
            "min" : [
                -1.3447506427764893,
                1.8788090944290161,
                -0.4591873288154602
            ],
            "type" : "VEC3"
        },
        {
            "bufferView" : 5,
            "componentType" : 5126,
            "count" : 129,
            "type" : "VEC3"
        },
        {
            "bufferView" : 6,
            "componentType" : 5126,
            "count" : 129,
            "type" : "VEC2"
        },
        {
            "bufferView" : 7,
            "componentType" : 5123,
            "count" : 318,
            "type" : "SCALAR"
        },
        {
            "bufferView" : 8,
            "componentType" : 5126,
            "count" : 3740,
            "max" : [
                5.232141494750977,
                2.848356008529663,
                1.3396918773651123
            ],
            "min" : [
                -2.5233805179595947,
                0.1558370590209961,
                -1.3405072689056396
            ],
            "type" : "VEC3"
        },
        {
            "bufferView" : 9,
            "componentType" : 5126,
            "count" : 3740,
            "type" : "VEC3"
        },
        {
            "bufferView" : 10,
            "componentType" : 5126,
            "count" : 3740,
            "type" : "VEC2"
        },
        {
            "bufferView" : 11,
            "componentType" : 5123,
            "count" : 10479,
            "type" : "SCALAR"
        },
        {
            "bufferView" : 12,
            "componentType" : 5126,
            "count" : 430,
            "max" : [
                4.962740421295166,
                2.6763768196105957,
                1.3738775253295898
            ],
            "min" : [
                -1.9321539402008057,
                0.07191622257232666,
                -1.3742318153381348
            ],
            "type" : "VEC3"
        },
        {
            "bufferView" : 13,
            "componentType" : 5126,
            "count" : 430,
            "type" : "VEC3"
        },
        {
            "bufferView" : 14,
            "componentType" : 5126,
            "count" : 430,
            "type" : "VEC2"
        },
        {
            "bufferView" : 15,
            "componentType" : 5123,
            "count" : 1164,
            "type" : "SCALAR"
        }
    ],
    "bufferViews" : [
        {
            "buffer" : 0,
            "byteLength" : 28560,
            "byteOffset" : 0
        },
        {
            "buffer" : 0,
            "byteLength" : 28560,
            "byteOffset" : 28560
        },
        {
            "buffer" : 0,
            "byteLength" : 19040,
            "byteOffset" : 57120
        },
        {
            "buffer" : 0,
            "byteLength" : 10074,
            "byteOffset" : 76160
        },
        {
            "buffer" : 0,
            "byteLength" : 1548,
            "byteOffset" : 86236
        },
        {
            "buffer" : 0,
            "byteLength" : 1548,
            "byteOffset" : 87784
        },
        {
            "buffer" : 0,
            "byteLength" : 1032,
            "byteOffset" : 89332
        },
        {
            "buffer" : 0,
            "byteLength" : 636,
            "byteOffset" : 90364
        },
        {
            "buffer" : 0,
            "byteLength" : 44880,
            "byteOffset" : 91000
        },
        {
            "buffer" : 0,
            "byteLength" : 44880,
            "byteOffset" : 135880
        },
        {
            "buffer" : 0,
            "byteLength" : 29920,
            "byteOffset" : 180760
        },
        {
            "buffer" : 0,
            "byteLength" : 20958,
            "byteOffset" : 210680
        },
        {
            "buffer" : 0,
            "byteLength" : 5160,
            "byteOffset" : 231640
        },
        {
            "buffer" : 0,
            "byteLength" : 5160,
            "byteOffset" : 236800
        },
        {
            "buffer" : 0,
            "byteLength" : 3440,
            "byteOffset" : 241960
        },
        {
            "buffer" : 0,
            "byteLength" : 2328,
            "byteOffset" : 245400
        }
    ],
    "buffers" : [
        {
            "byteLength" : 247728,
            "uri" : "data:application/octet-stream;base64,"
        }
    ]
}
